<svg width="100" height="101" viewBox="0 0 100 101" fill="none" xmlns="http://www.w3.org/2000/svg">
<path d="M99.4277 18.4323L81.6543 0.661426C81.2881 0.295215 80.7914 0.0893555 80.2734 0.0893555H22.2656C19.0348 0.0893555 16.4062 2.71787 16.4062 5.94873V9.67217C6.81152 13.4358 0 22.7876 0 33.7009C0 34.7794 0.874609 35.654 1.95312 35.654H25.799C26.8775 35.654 27.7521 34.7794 27.7521 33.7009V9.85498C27.7521 8.77646 26.8775 7.90186 25.799 7.90186C23.9166 7.90186 22.0814 8.10635 20.3125 8.49111V5.94873C20.3125 4.87178 21.1887 3.99561 22.2656 3.99561H78.3203V15.9097C78.3203 19.1405 80.9488 21.769 84.1797 21.769H96.0938V94.23C96.0938 95.3069 95.2176 96.1831 94.1406 96.1831H22.2656C21.1887 96.1831 20.3125 95.3069 20.3125 94.23V77.4981C20.3125 76.4196 19.4379 75.545 18.3594 75.545C17.2809 75.545 16.4062 76.4196 16.4062 77.4981V94.23C16.4062 97.4608 19.0348 100.089 22.2656 100.089H94.1406C97.3715 100.089 100 97.4608 100 94.23V19.8134C100 19.2954 99.7941 18.7985 99.4277 18.4323ZM23.8457 11.8946V31.7478H3.99258C4.92637 21.2306 13.3287 12.8284 23.8457 11.8946ZM84.1797 17.8628C83.1027 17.8628 82.2266 16.9866 82.2266 15.9097V6.75732L93.3336 17.8628H84.1797Z" fill="#00A650"/>
<path d="M19.74 69.021C19.377 68.6575 18.873 68.4487 18.3594 68.4487C17.8457 68.4487 17.3418 68.6575 16.9785 69.021C16.6152 69.3843 16.4062 69.8882 16.4062 70.4019C16.4062 70.9155 16.615 71.4194 16.9785 71.7825C17.3418 72.146 17.8457 72.355 18.3594 72.355C18.873 72.355 19.377 72.146 19.74 71.7825C20.1035 71.4194 20.3125 70.9155 20.3125 70.4019C20.3125 69.8882 20.1035 69.3843 19.74 69.021Z" fill="#00A650"/>
<path d="M32.7949 14.8977C31.7164 14.8977 30.8418 15.7723 30.8418 16.8508V38.7434H8.94922C7.8707 38.7434 6.99609 39.618 6.99609 40.6965C6.99609 54.9221 18.5693 66.4956 32.7949 66.4956C47.0205 66.4956 58.5939 54.9221 58.5939 40.6965C58.5939 26.4709 47.0205 14.8977 32.7949 14.8977ZM34.748 18.8905C39.3203 19.2963 43.4924 21.1147 46.8254 23.9042L34.748 35.9813V18.8905ZM32.7949 62.5893C21.3814 62.5893 11.9797 53.8102 10.9889 42.6497H32.7949C33.334 42.6497 33.8219 42.4313 34.1754 42.0782C34.1756 42.078 34.1758 42.078 34.1762 42.0776L49.5881 26.6659C52.7699 30.468 54.6877 35.3625 54.6877 40.6965C54.6877 52.7682 44.8666 62.5893 32.7949 62.5893Z" fill="#00A650"/>
<path d="M85.5611 61.731C82.3303 61.731 79.7018 64.3595 79.7018 67.5903C79.7018 68.4001 79.867 69.1718 80.1652 69.8739L68.9127 81.1265C68.1395 80.7497 67.2715 80.5378 66.3551 80.5378C65.4604 80.5378 64.6123 80.7401 63.8531 81.1001L56.3809 73.6278C56.6398 72.9669 56.7836 72.2483 56.7836 71.4964C56.7836 68.2655 54.1551 65.637 50.9242 65.637C47.6934 65.637 45.0648 68.2655 45.0648 71.4964C45.0648 72.3718 45.2592 73.2022 45.6049 73.9489L38.4379 81.1159C37.6744 80.7507 36.8201 80.5458 35.9189 80.5458C32.6881 80.5458 30.0596 83.1743 30.0596 86.4052C30.0596 89.636 32.6881 92.2646 35.9189 92.2646C39.1498 92.2646 41.7783 89.636 41.7783 86.4052C41.7783 85.4995 41.5717 84.6413 41.2033 83.8751L48.3303 76.7481C49.1129 77.1364 49.9934 77.3558 50.9246 77.3558C51.9764 77.3558 52.9633 77.0759 53.8174 76.5888L61.0789 83.8503C60.7055 84.6208 60.4957 85.4849 60.4957 86.3972C60.4957 89.628 63.1242 92.2565 66.3551 92.2565C69.5859 92.2565 72.2145 89.628 72.2145 86.3972C72.2145 85.5069 72.0141 84.6628 71.6572 83.9065L82.8047 72.7591C83.6268 73.1993 84.5652 73.4497 85.5611 73.4497C88.792 73.4497 91.4205 70.8212 91.4205 67.5903C91.4205 64.3595 88.792 61.731 85.5611 61.731ZM35.9188 88.3585C34.8418 88.3585 33.9656 87.4823 33.9656 86.4054C33.9656 85.3284 34.8418 84.4522 35.9188 84.4522C36.4432 84.4522 36.9188 84.661 37.2699 84.9985C37.2777 85.0067 37.2846 85.0155 37.2926 85.0235C37.302 85.0329 37.3121 85.0407 37.3217 85.0497C37.6615 85.4013 37.8719 85.879 37.8719 86.4054C37.8719 87.4821 36.9957 88.3585 35.9188 88.3585ZM50.9242 73.4495C49.8473 73.4495 48.9711 72.5733 48.9711 71.4964C48.9711 70.4194 49.8473 69.5433 50.9242 69.5433C52.0012 69.5433 52.8773 70.4194 52.8773 71.4964C52.8773 72.5733 52.0012 73.4495 50.9242 73.4495ZM66.3547 88.3503C65.2777 88.3503 64.4016 87.4741 64.4016 86.3972C64.4016 85.3202 65.2777 84.444 66.3547 84.444C67.4316 84.444 68.3078 85.3202 68.3078 86.3972C68.3078 87.4741 67.4316 88.3503 66.3547 88.3503ZM85.5607 69.5433C84.4838 69.5433 83.6076 68.6671 83.6076 67.5901C83.6076 66.5132 84.484 65.637 85.5607 65.637C86.6377 65.637 87.5139 66.5132 87.5139 67.5901C87.5139 68.6671 86.6377 69.5433 85.5607 69.5433Z" fill="#00A650"/>
<path d="M75.7986 45.9878H65.4902C64.4117 45.9878 63.5371 46.8624 63.5371 47.9409C63.5371 49.0194 64.4115 49.894 65.4902 49.894H75.7986C76.8771 49.894 77.7518 49.0194 77.7518 47.9409C77.7518 46.8624 76.8771 45.9878 75.7986 45.9878Z" fill="#00A650"/>
<path d="M86.0721 46.5601C85.709 46.1968 85.2051 45.9878 84.6914 45.9878C84.1777 45.9878 83.6738 46.1966 83.3105 46.5601C82.9473 46.9233 82.7383 47.4272 82.7383 47.9409C82.7383 48.4546 82.9471 48.9585 83.3105 49.3216C83.6738 49.6849 84.1758 49.894 84.6914 49.894C85.2051 49.894 85.709 49.6851 86.0721 49.3216C86.4354 48.9585 86.6445 48.4546 86.6445 47.9409C86.6445 47.4272 86.4355 46.9233 86.0721 46.5601Z" fill="#00A650"/>
<path d="M89.3484 27.2378H65.4902C64.4117 27.2378 63.5371 28.1124 63.5371 29.1909C63.5371 30.2694 64.4115 31.144 65.4902 31.144H89.3484C90.427 31.144 91.3016 30.2694 91.3016 29.1909C91.3016 28.1124 90.427 27.2378 89.3484 27.2378Z" fill="#00A650"/>
<path d="M89.3484 36.6128H65.4902C64.4117 36.6128 63.5371 37.4874 63.5371 38.5659C63.5371 39.6444 64.4115 40.519 65.4902 40.519H89.3484C90.427 40.519 91.3016 39.6444 91.3016 38.5659C91.3016 37.4874 90.427 36.6128 89.3484 36.6128Z" fill="#00A650"/>
</svg>
