<svg width="100" height="101" viewBox="0 0 100 101" fill="none" xmlns="http://www.w3.org/2000/svg">
<path d="M99.4277 18.4323L81.6543 0.661426C81.2881 0.295215 80.7914 0.0893555 80.2734 0.0893555H22.2656C19.0348 0.0893555 16.4062 2.71787 16.4062 5.94873V9.67217C6.81152 13.4358 0 22.7876 0 33.7009C0 34.7794 0.874609 35.654 1.95312 35.654H25.799C26.8775 35.654 27.7521 34.7794 27.7521 33.7009V9.85498C27.7521 8.77646 26.8775 7.90186 25.799 7.90186C23.9166 7.90186 22.0814 8.10635 20.3125 8.49111V5.94873C20.3125 4.87178 21.1887 3.99561 22.2656 3.99561H78.3203V15.9097C78.3203 19.1405 80.9488 21.769 84.1797 21.769H96.0938V94.23C96.0938 95.3069 95.2176 96.1831 94.1406 96.1831H22.2656C21.1887 96.1831 20.3125 95.3069 20.3125 94.23V77.4981C20.3125 76.4196 19.4379 75.545 18.3594 75.545C17.2809 75.545 16.4062 76.4196 16.4062 77.4981V94.23C16.4062 97.4608 19.0348 100.089 22.2656 100.089H94.1406C97.3715 100.089 100 97.4608 100 94.23V19.8134C100 19.2954 99.7941 18.7985 99.4277 18.4323ZM23.8457 11.8946V31.7478H3.99258C4.92637 21.2306 13.3287 12.8284 23.8457 11.8946ZM84.1797 17.8628C83.1027 17.8628 82.2266 16.9866 82.2266 15.9097V6.75732L93.3336 17.8628H84.1797Z" fill="#00A650"/>
</svg>
