<svg width="34" height="20" viewBox="0 0 34 20" fill="none" xmlns="http://www.w3.org/2000/svg">
<path d="M33.1936 1.03283C33.0246 0.625782 32.7011 0.302312 32.2941 0.133269C32.0938 0.0479084 31.8787 0.00263204 31.661 0H23.3317C22.8899 0 22.4662 0.17551 22.1538 0.48792C21.8414 0.80033 21.6659 1.22405 21.6659 1.66586C21.6659 2.10768 21.8414 2.53139 22.1538 2.8438C22.4662 3.15621 22.8899 3.33172 23.3317 3.33172H27.6463L18.3341 12.6439L12.8535 7.14655C12.6986 6.99041 12.5143 6.86648 12.3113 6.7819C12.1083 6.69733 11.8906 6.65379 11.6707 6.65379C11.4508 6.65379 11.233 6.69733 11.03 6.7819C10.827 6.86648 10.6428 6.99041 10.4879 7.14655L0.492759 17.1417C0.33662 17.2966 0.21269 17.4808 0.128116 17.6838C0.0435427 17.8868 0 18.1046 0 18.3245C0 18.5444 0.0435427 18.7621 0.128116 18.9651C0.21269 19.1681 0.33662 19.3524 0.492759 19.5072C0.647623 19.6634 0.831869 19.7873 1.03487 19.8719C1.23787 19.9565 1.45561 20 1.67552 20C1.89543 20 2.11317 19.9565 2.31617 19.8719C2.51917 19.7873 2.70342 19.6634 2.85828 19.5072L11.6707 10.6782L17.1514 16.1755C17.3062 16.3317 17.4905 16.4556 17.6935 16.5402C17.8965 16.6247 18.1142 16.6683 18.3341 16.6683C18.5541 16.6683 18.7718 16.6247 18.9748 16.5402C19.1778 16.4556 19.362 16.3317 19.5169 16.1755L29.9952 5.68059V9.99517C29.9952 10.437 30.1707 10.8607 30.4831 11.1731C30.7955 11.4855 31.2192 11.661 31.661 11.661C32.1028 11.661 32.5266 11.4855 32.839 11.1731C33.1514 10.8607 33.3269 10.437 33.3269 9.99517V1.66586C33.3243 1.44817 33.279 1.23311 33.1936 1.03283Z" fill="white"/>
</svg>
