<svg width="100" height="101" viewBox="0 0 100 101" fill="none" xmlns="http://www.w3.org/2000/svg">
<path d="M21.4516 97.005L18.5112 92.8632C17.887 91.9835 16.6677 91.7767 15.788 92.4011C14.9085 93.0255 14.7015 94.2446 15.3261 95.1243L18.2665 99.2663C18.6474 99.8028 19.2493 100.089 19.8608 100.089C20.2519 100.089 20.6466 99.9717 20.9897 99.7282C21.8692 99.1038 22.0763 97.8846 21.4516 97.005Z" fill="#00A650"/>
<path d="M43.9852 97.7347L40.7852 82.4832C39.2291 75.0668 34.9088 68.654 28.6206 64.4257L21.7884 59.8315C19.0487 57.9897 15.3663 58.3858 13.0765 60.7208V37.1865C13.0765 34.0975 10.9705 31.4729 7.95485 30.8035C6.00857 30.3711 4.00116 30.8395 2.44628 32.0869C0.891598 33.3344 0 35.1932 0 37.1865V67.47C0 71.4373 1.21406 75.2446 3.51073 78.4799L6.99372 83.3863C7.37458 83.9228 7.97653 84.209 8.58805 84.209C8.97906 84.209 9.37379 84.0918 9.71695 83.8482C10.5964 83.2238 10.8035 82.0047 10.1789 81.125L6.69587 76.2186C4.87088 73.6477 3.90623 70.6225 3.90623 67.4698V37.1865C3.90623 36.3842 4.26522 35.6359 4.891 35.1336C5.51658 34.6314 6.32458 34.443 7.10856 34.617C8.32243 34.8863 9.17028 35.943 9.17028 37.1865V61.213C9.17028 64.6141 10.4199 67.8546 12.69 70.3756C12.7873 70.4922 12.8873 70.6077 12.9929 70.7196C14.29 72.094 15.815 73.7135 17.2513 75.2401L19.262 77.3801C19.2685 77.3869 19.2755 77.3928 19.2821 77.3994C21.0023 79.2289 22.2708 80.5799 22.2974 80.608C23.0355 81.3941 24.2718 81.4332 25.0581 80.6947C25.8444 79.9563 25.8833 78.7203 25.1446 77.934C25.1091 77.8961 22.8228 75.4616 20.2118 72.6864L15.7335 67.9202C15.7222 67.9081 15.7119 67.8954 15.7005 67.8833C14.6505 66.6274 14.6636 64.8065 15.7642 63.5639C16.7378 62.4651 18.3909 62.2542 19.6091 63.0731L26.4409 67.6672C31.8799 71.3245 35.6165 76.8709 36.9622 83.2853L40.1623 98.537C40.3555 99.4575 41.1674 100.089 42.0719 100.089C42.2047 100.089 42.3397 100.076 42.4748 100.047C43.5305 99.8259 44.2067 98.7904 43.9852 97.7347Z" fill="#00A650"/>
<path d="M14.4702 87.1706L14.4577 87.153C13.8307 86.2749 12.6112 86.071 11.7333 86.6975C10.8554 87.3241 10.6515 88.5438 11.2778 89.4217L11.2903 89.4393C11.6716 89.9735 12.2722 90.2582 12.8819 90.2582C13.2745 90.2582 13.6708 90.1403 14.0147 89.8948C14.8925 89.2682 15.0966 88.0485 14.4702 87.1706Z" fill="#00A650"/>
<path d="M97.5531 32.0871C95.9984 30.8396 93.99 30.3721 92.0447 30.8037C89.0291 31.4728 86.9228 34.0976 86.9228 37.1867V60.721C84.6332 58.386 80.9504 57.9899 78.211 59.8317L71.3788 64.4256C65.0903 68.6537 60.7702 75.0668 59.2142 82.4832L56.0142 97.7349C55.7927 98.7905 56.4689 99.8259 57.5245 100.047C57.6597 100.076 57.7948 100.089 57.9275 100.089C58.8321 100.089 59.6439 99.4573 59.837 98.5368L63.037 83.2851C64.3829 76.8709 68.1192 71.3242 73.5583 67.6672L80.3904 63.0733C81.6082 62.2542 83.2613 62.4651 84.2354 63.5639C85.3346 64.8049 85.3492 66.6229 84.3031 67.8787C84.2906 67.8924 84.2787 67.9065 84.2662 67.9201C84.2662 67.9201 74.8903 77.8965 74.8549 77.934C74.1165 78.7203 74.1553 79.9562 74.9414 80.6947C75.7278 81.4332 76.9637 81.3943 77.7022 80.608C77.7287 80.5799 85.7096 72.0942 87.0066 70.7197C87.1123 70.6078 87.2123 70.4924 87.3096 70.3758C89.5795 67.8547 90.8293 64.6143 90.8293 61.2131V37.1865C90.8293 35.9429 91.6771 34.8863 92.8912 34.617C93.675 34.4431 94.4828 34.6316 95.1087 35.1336C95.7345 35.6357 96.0935 36.3839 96.0935 37.1865V67.47C96.0935 70.6227 95.1289 73.6479 93.3039 76.2187L78.5479 97.0052C77.9235 97.8847 78.1303 99.104 79.0098 99.7284C79.3531 99.972 79.7477 100.089 80.1387 100.089C80.75 100.089 81.3522 99.8028 81.733 99.2665L96.489 78.4801C98.7857 75.2447 99.9997 71.4375 99.9997 67.4701V37.1865C99.9992 35.1931 99.1078 33.3345 97.5531 32.0871Z" fill="#00A650"/>
<path d="M74.7372 37.5228L71.2624 36.6928V36.0697C73.5208 34.4877 75.0016 31.868 75.0016 28.9074V24.3901C75.0016 19.57 71.0804 15.6487 66.2603 15.6487C64.0972 15.6487 62.1167 16.4401 60.5888 17.7464C58.8876 13.5804 54.7943 10.6362 50.024 10.6362C45.2478 10.6362 41.1502 13.588 39.4529 17.762C37.9227 16.4464 35.935 15.6483 33.7631 15.6483C28.943 15.6483 25.0217 19.5696 25.0217 24.3897V24.6899V28.9071C25.0217 31.8676 26.5026 34.4873 28.761 36.0693V36.6924L25.2862 37.5225C21.1374 38.5137 18.2397 42.1849 18.2397 46.4505V50.0982C18.2397 51.1769 19.1144 52.0513 20.1929 52.0513H29.1678C29.154 52.2882 29.1444 52.5263 29.1444 52.7663V59.7894C29.1444 60.8681 30.019 61.7425 31.0975 61.7425H42.8377C43.9162 61.7425 44.7908 60.8681 44.7908 59.7894C44.7908 58.7106 43.9162 57.8362 42.8377 57.8362H40.8197V53.8001C40.8197 52.7214 39.9451 51.847 38.8666 51.847C37.7881 51.847 36.9135 52.7214 36.9135 53.8001V57.8366H33.0508V52.7667C33.0508 48.9997 35.6094 45.7558 39.2723 44.8781L44.632 43.5937L48.2189 51.7542C48.5306 52.4634 49.2322 52.9214 50.0066 52.9214H50.0068C50.7814 52.9214 51.483 52.4636 51.7947 51.7544L55.3779 43.606L60.7206 44.8824C64.387 45.7584 66.9478 49.0027 66.9478 52.7724V57.8366H63.0851V53.8001C63.0851 52.7214 62.2105 51.847 61.132 51.847C60.0534 51.847 59.1788 52.7214 59.1788 53.8001V57.8366H56.9654C55.8869 57.8366 55.0122 58.711 55.0122 59.7897C55.0122 60.8684 55.8869 61.7429 56.9654 61.7429H68.9011C69.9796 61.7429 70.8542 60.8684 70.8542 59.7897V52.7724C70.8542 52.5304 70.8444 52.2906 70.8304 52.0517H79.8307C80.9092 52.0517 81.7838 51.1773 81.7838 50.0986V46.4509C81.7838 42.1853 78.8862 38.5139 74.7372 37.5228ZM66.2603 19.5546C68.8192 19.5546 70.92 21.5528 71.0848 24.0707H68.3694C66.0866 24.0707 63.8401 23.5211 61.8208 22.4747C62.5636 20.7583 64.2741 19.5546 66.2603 19.5546ZM61.4251 28.6219C61.4275 28.5268 61.4323 28.4321 61.4323 28.3364V26.5969C63.6239 27.5039 65.9808 27.977 68.3694 27.977H71.0954V28.9073C71.0954 31.5733 68.9265 33.7424 66.2603 33.7424C63.5941 33.7424 61.4251 31.5733 61.4251 28.9071V28.6219ZM42.5221 22.0444C42.5221 17.9079 45.8873 14.5425 50.024 14.5425C53.755 14.5425 56.8583 17.2803 57.4314 20.8522L54.1433 18.9204C53.3209 18.4372 52.2697 18.6186 51.657 19.3501C50.0502 21.2676 47.6937 22.3674 45.1918 22.3674H42.5221V22.0444ZM33.7633 19.5546C35.7494 19.5546 37.4598 20.7585 38.2028 22.4745C36.1832 23.5209 33.9369 24.0706 31.6541 24.0706H28.9387C29.1036 21.5528 31.2045 19.5546 33.7633 19.5546ZM28.9282 27.9768H31.6541C34.0453 27.9768 36.4047 27.5028 38.5985 26.5938V28.9069C38.5985 31.5729 36.4295 33.742 33.7633 33.742C31.0971 33.742 28.9282 31.5733 28.9282 28.9071V27.9768ZM38.3621 41.0793C34.5196 42 31.4997 44.6791 30.0624 48.1453H22.146V46.4507C22.146 44.0004 23.8104 41.8912 26.1938 41.3218L31.168 40.1336C32.0471 39.9236 32.6674 39.1379 32.6674 38.234V37.5773C33.0268 37.6224 33.392 37.6484 33.7633 37.6484C34.1319 37.6484 34.4946 37.6228 34.8512 37.5783V38.1355C34.8498 38.1646 34.8492 38.1937 34.8491 38.2228C34.8487 38.8637 35.1637 39.4914 35.7422 39.8656C35.9602 40.0068 36.1957 40.0986 36.4362 40.1445L39.3496 40.8426L38.3621 41.0793ZM43.8102 38.0473C43.3084 37.826 42.7854 37.649 42.2463 37.5199L38.7572 36.6838V36.0752C39.3869 35.6352 39.9563 35.115 40.45 34.5287C41.3223 35.8725 42.4684 37.0215 43.8102 37.8967V38.0473ZM52.2929 40.917L50.0074 46.1152L47.7166 40.9037V39.5099C48.4621 39.6637 49.2338 39.7447 50.024 39.7447C50.8007 39.7447 51.5593 39.666 52.2929 39.5174V40.917ZM50.024 35.8383C45.8873 35.8385 42.5221 32.4731 42.5221 28.3364V26.2735H45.1918C48.289 26.2735 51.234 25.1217 53.491 23.0674L57.5187 25.4338V28.6221C57.3679 32.6266 54.065 35.8383 50.024 35.8383ZM56.1992 38.0535V37.9213C57.5519 37.0467 58.7081 35.8947 59.5872 34.5451C60.0777 35.1248 60.6421 35.6393 61.2657 36.0752V36.6838L57.7765 37.5199C57.2328 37.6504 56.7052 37.8295 56.1992 38.0535ZM77.8774 48.1453H69.9341C68.4954 44.6791 65.4733 42.0015 61.6284 41.083L60.6478 40.8488L63.5769 40.1469C63.8206 40.1015 64.0601 40.0086 64.281 39.8656C64.8585 39.492 65.1726 38.8642 65.1726 38.2234C65.1726 38.2082 65.1724 38.1928 65.172 38.1775V37.5783C65.5288 37.6228 65.8913 37.6484 66.2599 37.6484C66.6312 37.6484 66.9964 37.6224 67.3558 37.5773V38.234C67.3558 39.1379 67.9761 39.9236 68.8552 40.1336L73.8294 41.3218C76.2128 41.8914 77.8774 44.0004 77.8774 46.4507V48.1453Z" fill="#00A650"/>
<path d="M51.3802 58.4075C51.0151 58.0442 50.5132 57.8372 49.9995 57.8372C49.4837 57.8372 48.9819 58.0442 48.6186 58.4075C48.2534 58.7727 48.0464 59.2747 48.0464 59.7903C48.0464 60.3039 48.2534 60.8059 48.6186 61.1711C48.9819 61.5344 49.4839 61.7434 49.9995 61.7434C50.5132 61.7434 51.0151 61.5344 51.3802 61.1711C51.7434 60.8059 51.9526 60.3039 51.9526 59.7903C51.9526 59.2747 51.7436 58.7727 51.3802 58.4075Z" fill="#00A650"/>
<path d="M49.998 0.0893555C48.9195 0.0893555 48.0449 0.963766 48.0449 2.04247V4.96492C48.0449 6.04363 48.9195 6.91804 49.998 6.91804C51.0766 6.91804 51.9512 6.04363 51.9512 4.96492V2.04247C51.9512 0.963766 51.0767 0.0893555 49.998 0.0893555Z" fill="#00A650"/>
<path d="M42.8037 6.46017L40.7549 4.4133C39.9918 3.65081 38.7553 3.65139 37.9928 4.41448C37.2303 5.17756 37.2311 6.41427 37.9942 7.17657L40.0432 9.22344C40.4244 9.60449 40.924 9.79492 41.4234 9.79492C41.9236 9.79492 42.4236 9.60391 42.8051 9.22227C43.5672 8.45919 43.5668 7.22247 42.8037 6.46017Z" fill="#00A650"/>
<path d="M61.9568 4.46338C61.1937 3.70108 59.9568 3.70147 59.1947 4.46474L57.1617 6.4997C56.3994 7.26278 56.4 8.49949 57.163 9.26179C57.5445 9.64285 58.0439 9.83328 58.5435 9.83328C59.0437 9.83328 59.5439 9.64226 59.9251 9.26043L61.9581 7.22547C62.7204 6.46239 62.7198 5.22568 61.9568 4.46338Z" fill="#00A650"/>
</svg>
