<svg id="Слой_1" data-name="Слой 1" xmlns="http://www.w3.org/2000/svg" xmlns:xlink="http://www.w3.org/1999/xlink" viewBox="0 0 1920 912"><defs><style>.cls-1{fill:url(#Безымянный_градиент_2);}.cls-2{fill:#06a650;}.cls-3{fill:#f0f0f0;}</style><linearGradient id="Безымянный_градиент_2" x1="1920" y1="356.37" x2="0" y2="356.37" gradientTransform="matrix(1, 0, 0, -1, 0, 812.37)" gradientUnits="userSpaceOnUse"><stop offset="0" stop-color="#4cb484"/><stop offset="1" stop-color="#06a650"/></linearGradient></defs><title>bck_seo@2x</title><path class="cls-1" d="M1920,0,0,178.55V782.46L1920,912Z"/><path class="cls-2" d="M1470,597.06a117.3,117.3,0,0,0,72.23-24.9L1607.06,637l20.85-20.85-64.84-64.84A117.85,117.85,0,1,0,1470,597.06Zm0-206.49a88.5,88.5,0,1,1-88.49,88.5A88.59,88.59,0,0,1,1470,390.57Z"/><path class="cls-3" d="M1476.89,575a117.23,117.23,0,0,0,72.23-24.89L1614,614.93l20.86-20.86L1570,529.23A117.85,117.85,0,1,0,1476.89,575Zm0-206.48A88.5,88.5,0,1,1,1388.4,457,88.58,88.58,0,0,1,1476.89,368.5Z"/></svg>