<svg id="Слой_1" data-name="Слой 1" xmlns="http://www.w3.org/2000/svg" xmlns:xlink="http://www.w3.org/1999/xlink" viewBox="0 0 1440 589.72"><defs><style>.cls-1{fill:url(#Безымянный_градиент_4);}.cls-2{fill:#fff;}</style><linearGradient id="Безымянный_градиент_4" y1="1833.37" x2="1440" y2="1833.37" gradientTransform="matrix(1, 0, 0, -1, 0, 2092.87)" gradientUnits="userSpaceOnUse"><stop offset="0" stop-color="#06a650"/><stop offset="1" stop-color="#4cb484"/></linearGradient></defs><title>bck_team@2x</title><path class="cls-1" d="M0,104.1,1440,0V519L0,426.41Z"/><path class="cls-2" d="M897.65,456.88A8.1,8.1,0,1,1,913,451.75,49.44,49.44,0,0,0,930.92,476,49,49,0,0,0,1006,451.75a8.1,8.1,0,1,1,15.37,5.13,65.23,65.23,0,0,1-123.71,0Zm252.76-220.49-30.3-10.27-19.39,9.47v8.63a24.85,24.85,0,0,0,49.69,0Zm-49.69-18.81,14.78-7.25a8,8,0,0,1,6.67-.65l28.24,9.56V208.88a10.3,10.3,0,0,0-3-7.28,10.45,10.45,0,0,0-7.31-3h-29a10.4,10.4,0,0,0-10.33,10.32v8.7ZM768.59,211.4h49.69V198.56H778.91a10.38,10.38,0,0,0-10.32,10.32v2.52Zm49.69,16.26H768.59v16.56a24.85,24.85,0,0,0,49.69,0V227.66Zm166.08-37.52c-9,.92-22,.09-33.25-9.15a34.22,34.22,0,0,1-16.44,4.11v12.82a24.85,24.85,0,0,0,49.69,0v-7.78Zm-49.69-21.23a18.08,18.08,0,0,0,12-4.3l.15-.13a8.13,8.13,0,0,1,11.43.83c8.26,9.5,19.54,9.59,26.15,8.58V162.58A10.38,10.38,0,0,0,974,152.26H945a10.29,10.29,0,0,0-7.29,3,10.17,10.17,0,0,0-3,7.28ZM834.53,244.22A41.05,41.05,0,0,1,829,264.87a39.37,39.37,0,0,1,32.73,38.69v13.21l2.21-2.21a8.28,8.28,0,0,1,1.07-.93,14,14,0,0,1,8.64-3.19,13.64,13.64,0,0,1,9.4,3.81c.12.09.21.21.34.31l7.9,7.86V257.25A39.35,39.35,0,0,1,924,218.57a41,41,0,0,1-5.59-20.65V162.58A26.63,26.63,0,0,1,945,136h29a26.63,26.63,0,0,1,26.58,26.58v35.34A40.65,40.65,0,0,1,995,218.57a39.36,39.36,0,0,1,32.76,38.68v65.17l7.86-7.86a5.38,5.38,0,0,1,1.11-.93,13.18,13.18,0,0,1,8.66-3.19,14.11,14.11,0,0,1,9.25,3.72l.43.4,2.21,2.21V303.56a39.36,39.36,0,0,1,32.76-38.69,40.77,40.77,0,0,1-5.59-20.65V208.88a26.63,26.63,0,0,1,26.58-26.57h29a26.63,26.63,0,0,1,26.6,26.57v35.34a41,41,0,0,1-5.59,20.65,39.37,39.37,0,0,1,32.73,38.69V347c6.33,4.92,13.86,13.65,19.79,19.55a12,12,0,0,1,3.44,8.45,13.34,13.34,0,0,1-3.63,8.88l-6.36,6.36a75.44,75.44,0,0,1,4.89,10.2c1.41,3.56,2.61,7.13,3.62,10.48h9.31A11.79,11.79,0,0,1,1237,423.42V449.2a12.32,12.32,0,0,1-3.44,8.7,12.63,12.63,0,0,1-9,3.44h-9c-1,3.35-2.21,6.91-3.62,10.48a76.61,76.61,0,0,1-4.89,10.2l6.55,6.54a13.46,13.46,0,0,1,3.44,8.7,11.71,11.71,0,0,1-3.14,8.08,3.45,3.45,0,0,1-.3.34v0l-18.5,18.47c-5.29,5.28-12.11,5-17.3-.16l-6.42-6.42a90.75,90.75,0,0,1-10.2,4.86c-3.29,1.32-6.61,2.42-10.42,3.62v9.37a12.34,12.34,0,0,1-3.47,8.76,11.59,11.59,0,0,1-8.67,3.32v.06h-26.12a12.19,12.19,0,0,1-8.72-3.38,12.59,12.59,0,0,1-3.41-9v-9.13c-3.84-1.2-7.13-2.3-10.42-3.62-1.72-.71-3.41-1.45-5.13-2.25a14.59,14.59,0,0,1,.15,2,13.49,13.49,0,0,1-4,9.59l-25.94,26a13.61,13.61,0,0,1-19.63-.18l-10.85-10.88a127.06,127.06,0,0,1-16.19,7.9c-5.19,2.09-10.42,3.78-16.78,5.74V576a14.13,14.13,0,0,1-3.87,10,13.3,13.3,0,0,1-9.86,3.72v0H941.13a13.81,13.81,0,0,1-9.9-3.75,14.33,14.33,0,0,1-3.87-10.11V560.34l-.12,0c-6.3-1.93-11.5-3.65-16.63-5.71a126,126,0,0,1-16.22-7.9l-11,11.06a14.16,14.16,0,0,1-9.74,4.09,14,14,0,0,1-9.25-3.72,5.63,5.63,0,0,1-.43-.4l0,0-26-26a13.6,13.6,0,0,1-3.9-9.53,13.16,13.16,0,0,1,.19-2c-1.73.8-3.42,1.54-5.14,2.25-3.28,1.32-6.6,2.42-10.44,3.62v9.37a12.39,12.39,0,0,1-3.41,8.76,11.64,11.64,0,0,1-8.7,3.32v.06H780.36a12.12,12.12,0,0,1-8.67-3.38,12,12,0,0,1-3.41-8.63v-.12h0v-9.38c-3.84-1.19-7.16-2.3-10.41-3.62a93.76,93.76,0,0,1-10.24-4.86L741,524.18c-5.16,5.13-11.28,5.07-16.72.37-.12-.13-.27-.25-.4-.4l0,0-18.47-18.47a11.91,11.91,0,0,1-3.44-8.45,13.27,13.27,0,0,1,2.49-7.5,10.23,10.23,0,0,1,.95-1.2l6.52-6.54a81.9,81.9,0,0,1-4.89-10.2c-1.41-3.57-2.61-7.13-3.59-10.48h-9.31a12.25,12.25,0,0,1-8.67-3.44,11.94,11.94,0,0,1-3.44-8.54v-.16h0V423.08a12.2,12.2,0,0,1,3.47-8.69,12.43,12.43,0,0,1,8.7-3.44h9.28c1-3.35,2.18-6.92,3.59-10.48a81.22,81.22,0,0,1,4.89-10.2l-6.52-6.55A13.48,13.48,0,0,1,702,375a11.92,11.92,0,0,1,3.47-8.48l18.44-18.44a14.47,14.47,0,0,1,1.29-1.08V303.56a39.36,39.36,0,0,1,32.76-38.69,40.68,40.68,0,0,1-5.6-20.65V208.88a26.65,26.65,0,0,1,26.58-26.57h47.51a8.1,8.1,0,0,1,8.11,8.11v53.8Zm-21.94,36.35a40.86,40.86,0,0,1-38.28,0h-9.9a23.08,23.08,0,0,0-23,23v45l6.17,6.14a93.61,93.61,0,0,1,10.24-4.85c3.25-1.32,6.57-2.43,10.41-3.63v-9.37a6.41,6.41,0,0,1,.1-1.16,11.43,11.43,0,0,1,12-10.91v0h26.15a12.12,12.12,0,0,1,8.7,3.35,12.68,12.68,0,0,1,3.41,9v9.15c3.84,1.2,7.15,2.31,10.44,3.63,1.72.71,3.41,1.44,5.14,2.24a13,13,0,0,1-.19-2,13.38,13.38,0,0,1,3.57-9.16c.12-.12.21-.25.33-.37l7.53-7.53V303.56a23.08,23.08,0,0,0-23-23Zm332.14,0a40.88,40.88,0,0,1-38.29,0h-9.9a23,23,0,0,0-23,23V333l7.53,7.53a13.43,13.43,0,0,1,3.87,9.53,14.45,14.45,0,0,1-.15,2c1.72-.8,3.41-1.53,5.13-2.24,3.29-1.32,6.57-2.43,10.42-3.63,0-3-.31-7.71.09-10.54a11.37,11.37,0,0,1,12-10.9v0h26.12a11.6,11.6,0,0,1,12.11,12v.12h0v9.37c3.81,1.2,7.13,2.31,10.42,3.63a90.62,90.62,0,0,1,10.2,4.85l6.17-6.14v-45a23.08,23.08,0,0,0-23-23ZM978.64,234.3A41,41,0,0,1,959.5,239a40.54,40.54,0,0,1-19.23-4.8l-9.78.07a23,23,0,0,0-23,22.95V319l3.1-1.29c5.16-2.06,10.42-3.78,16.75-5.75V296.3a14.12,14.12,0,0,1,3.87-10,13.38,13.38,0,0,1,9.9-3.72v0h36.78a13,13,0,0,1,13.7,13.61v.12h0v15.64l.12,0c6.3,1.94,11.53,3.66,16.66,5.72l3.07,1.29V257.25a23,23,0,0,0-23-22.95Zm130.75,230c.7.4,1.41.77,2.12,1.14A32.5,32.5,0,0,0,1158,436.14a32.52,32.52,0,0,0-46.52-29.28c-.71.37-1.45.74-2.15,1.14a13.47,13.47,0,0,1,3.69,9.58v.16h0v36.81A14.07,14.07,0,0,1,1109.39,464.29ZM1089,404a49.2,49.2,0,0,1,15.45-11.74,48.71,48.71,0,1,1,0,87.76A49.05,49.05,0,0,1,1089,468.28h-5.29a172.22,172.22,0,0,1-5.65,16.87,106.8,106.8,0,0,1-8,16.1l1.66,1.66a12.69,12.69,0,0,1,5.93-2.18,13.62,13.62,0,0,1,8.23,1.69,78.24,78.24,0,0,0,10.08,5c3.23,1.29,6.61,2.4,10.67,3.65a14.38,14.38,0,0,1,7.22,4.74,12.81,12.81,0,0,1,2.76,8v7.52h17.85v-7.52h0a12.41,12.41,0,0,1,2.77-8,14.34,14.34,0,0,1,6.82-4.64v0l0,0c4.24-1.29,7.68-2.43,11-3.75a77.81,77.81,0,0,0,10.11-5,13.65,13.65,0,0,1,8.24-1.69,12.7,12.7,0,0,1,7.12,3.13c.22.19.43.37.62.56l5.31,5.34,12.63-12.62-5.31-5.35h0a13.17,13.17,0,0,1-3.81-7.84,12.63,12.63,0,0,1,2-8.44,60.59,60.59,0,0,0,4.79-9.68,109,109,0,0,0,3.63-10.91,14.3,14.3,0,0,1,4.73-6.95,13.15,13.15,0,0,1,8-2.88h7.52V427.2h-7.52v0a12.57,12.57,0,0,1-8-2.85,14.3,14.3,0,0,1-4.73-6.95,108.1,108.1,0,0,0-3.63-10.91,60.59,60.59,0,0,0-4.79-9.68,12.64,12.64,0,0,1-2-8.45,13.58,13.58,0,0,1,3.78-7.83l5.31-5.35-12.63-12.63-5.31,5.35v0a12.73,12.73,0,0,1-7.74,3.72,13.65,13.65,0,0,1-8.24-1.69,78.44,78.44,0,0,0-10.11-5c-3.23-1.29-6.58-2.4-10.63-3.66a14.28,14.28,0,0,1-7.22-4.73,12.61,12.61,0,0,1-2.8-8V341h-17.85v7.52h0a12.23,12.23,0,0,1-2.74,8,14.21,14.21,0,0,1-6.85,4.64v0l0,0c-4.21,1.29-7.68,2.43-11,3.75a78.24,78.24,0,0,0-10.08,5,13.64,13.64,0,0,1-8.23,1.69,12.69,12.69,0,0,1-5.93-2.18l-1.66,1.66a105.37,105.37,0,0,1,8,16.1,171.49,171.49,0,0,1,5.66,16.87H1089ZM847.25,369.37a12.58,12.58,0,0,1-5.93,2.18,13.52,13.52,0,0,1-8.2-1.69,78.27,78.27,0,0,0-10.11-5c-3.23-1.29-6.58-2.4-10.63-3.66l-.4-.09a14.57,14.57,0,0,1-6.86-4.64,12.52,12.52,0,0,1-2.73-7.25c0-.25,0-.49,0-.74V341H784.51v7.53h0a12.25,12.25,0,0,1-2.74,8,14.49,14.49,0,0,1-6.85,4.64v0l0,0c-4.21,1.29-7.68,2.43-11,3.75a77.43,77.43,0,0,0-10.08,5,13.65,13.65,0,0,1-8.23,1.69,12.58,12.58,0,0,1-7.13-3.13l-.65-.55-5.31-5.35-12.63,12.63,5.31,5.35a13,13,0,0,1,3.78,7.83,12.83,12.83,0,0,1-2,8.45,57.51,57.51,0,0,0-4.83,9.68,112.4,112.4,0,0,0-3.62,10.91,14.12,14.12,0,0,1-4.74,6.94,13,13,0,0,1-8,2.89h-7.53v17.88h7.53v0a12.62,12.62,0,0,1,8,2.86,14.14,14.14,0,0,1,4.74,6.95,113.12,113.12,0,0,0,3.62,10.9,57.14,57.14,0,0,0,4.83,9.68,12.86,12.86,0,0,1,2,8.45,13.17,13.17,0,0,1-3.78,7.84l-5.31,5.34,12.63,12.63,5.31-5.34,0,0a12.76,12.76,0,0,1,7.75-3.72,13.65,13.65,0,0,1,8.23,1.69,76.17,76.17,0,0,0,10.08,5c3.23,1.29,6.58,2.4,10.66,3.66a14.47,14.47,0,0,1,7.22,4.73,12.84,12.84,0,0,1,2.77,8v7.53h17.85v-7.53h0a12.19,12.19,0,0,1,2.74-8,14.49,14.49,0,0,1,6.85-4.64v0l0,0c4.24-1.29,7.68-2.42,11-3.75a77,77,0,0,0,10.11-5,13.52,13.52,0,0,1,8.2-1.69,12.58,12.58,0,0,1,5.93,2.18l1.66-1.66a104.37,104.37,0,0,1-8-16.1,172.68,172.68,0,0,1-5.68-16.87H830a49.29,49.29,0,0,1-15.79,11.92,48.7,48.7,0,1,1,0-88.12A49.15,49.15,0,0,1,830,404h5.29A172.68,172.68,0,0,1,841,387.13a104.37,104.37,0,0,1,8-16.1ZM809.64,408c-.77-.43-1.56-.86-2.36-1.23a32.45,32.45,0,1,0,0,58.75c.8-.37,1.56-.8,2.33-1.23A13.76,13.76,0,0,1,806,454.7v-.15h0V417.74A14.08,14.08,0,0,1,809.64,408Zm49.72-65.91-.09.09-8.11,8.11,9.86,9.83h0a15.31,15.31,0,0,1,4.39,9.07,14.93,14.93,0,0,1-2.3,9.77A83.15,83.15,0,0,0,856,393.12a148.23,148.23,0,0,0-5.22,15.71,16.83,16.83,0,0,1-5.53,8.08,15.14,15.14,0,0,1-9.16,3.35H822.18V452H836.1v0a14.66,14.66,0,0,1,9.16,3.35,16.57,16.57,0,0,1,5.53,8,148.06,148.06,0,0,0,5.22,15.7,83.63,83.63,0,0,0,7.07,14.17,14.91,14.91,0,0,1,2.3,9.77,15.2,15.2,0,0,1-3.87,8.51c-.15.18-.31.37-.49.55L851.16,522l22.49,22.49,9.83-9.86,0,0a14.72,14.72,0,0,1,8.91-4.3,15.77,15.77,0,0,1,9.59,2,114.83,114.83,0,0,0,14.63,7.19c4.67,1.87,9.52,3.47,15.39,5.28a2,2,0,0,1,.4.13,16.69,16.69,0,0,1,8,5.4,14.2,14.2,0,0,1,3.13,8.51,5.47,5.47,0,0,1,0,.68v13.92h31.78V559.54h0a14.08,14.08,0,0,1,3.16-9.19,16.55,16.55,0,0,1,8-5.4h0c6-1.88,11-3.51,15.77-5.41a117.42,117.42,0,0,0,14.62-7.19,15.68,15.68,0,0,1,9.56-2,14.93,14.93,0,0,1,8.39,3.78c.18.15.36.34.55.49l9.86,9.86L1067.84,522l-2-2-7.84-7.84a15.45,15.45,0,0,1-4.39-9.06,14.94,14.94,0,0,1,2.33-9.77,85.92,85.92,0,0,0,7.07-14.17,163.1,163.1,0,0,0,5.22-15.7,16.57,16.57,0,0,1,5.53-8,14.87,14.87,0,0,1,9.13-3.38h13.92V420.26H1082.9v0a14.58,14.58,0,0,1-9.13-3.35,16.61,16.61,0,0,1-5.53-8.05,162.19,162.19,0,0,0-5.22-15.7A85.53,85.53,0,0,0,1056,379a15,15,0,0,1-2.33-9.77,15.41,15.41,0,0,1,3.87-8.51,6.67,6.67,0,0,1,.52-.55l9.83-9.84-8.11-8.11-.06-.09-14.29-14.29-9.86,9.86v0a14.74,14.74,0,0,1-8.94,4.3c-4.15.47-7.07-.58-10.57-2.58-4.71-2.36-8.67-4.61-13.62-6.6-4.7-1.88-9.52-3.47-15.39-5.29a16.65,16.65,0,0,1-8.42-5.53,14.08,14.08,0,0,1-3.17-8.51c0-.25,0-.46,0-.67V298.83H943.61v13.92h0a14.25,14.25,0,0,1-3.13,9.18,16.92,16.92,0,0,1-8,5.44l0,0v0c-6.06,1.85-11,3.47-15.77,5.38a110.52,110.52,0,0,0-13,6.24,17,17,0,0,1-11.25,2.95,14.73,14.73,0,0,1-8.39-3.78c-.18-.16-.37-.34-.55-.49l-9.83-9.87Zm162,73.31a8.1,8.1,0,1,1-15.36,5.13,49,49,0,0,0-93,0,8.1,8.1,0,1,1-15.37-5.13,65.24,65.24,0,0,1,123.71,0Z"/></svg>