<svg width="78" height="101" viewBox="0 0 78 101" fill="none" xmlns="http://www.w3.org/2000/svg">
<path d="M65.9751 19.2309C71.2531 19.2309 75.5414 14.9384 75.5414 9.66011C75.5414 4.38182 71.2531 0.0893555 65.9751 0.0893555C60.6971 0.0893555 56.4087 4.40236 56.4087 9.66011C56.4087 14.9179 60.6971 19.2309 65.9751 19.2309ZM65.9751 5.03904C68.511 5.03904 70.5933 7.11339 70.5933 9.68065C70.5933 12.2479 68.5316 14.3223 65.9751 14.3223C63.4185 14.3223 61.3568 12.2274 61.3568 9.66011C61.3568 7.09285 63.4185 5.03904 65.9751 5.03904Z" fill="#00A650"/>
<path d="M9.56638 80.9479C4.28838 80.9479 0 85.2403 0 90.5186C0 95.7969 4.28838 100.089 9.56638 100.089C14.8444 100.089 19.1328 95.7969 19.1328 90.5186C19.1328 85.2403 14.8238 80.9479 9.56638 80.9479ZM9.56638 95.1602C7.03046 95.1602 4.94813 93.0859 4.94813 90.5186C4.94813 87.9719 7.00985 85.877 9.56638 85.877C12.1229 85.877 14.1846 87.9514 14.1846 90.5186C14.164 93.0653 12.1023 95.1602 9.56638 95.1602Z" fill="#00A650"/>
<path d="M33.2141 42.5006C33.6883 42.973 34.3274 43.2195 34.9666 43.2195C35.6057 43.2195 36.2242 42.973 36.719 42.5006C37.688 41.5353 37.688 39.9744 36.719 39.0092L31.5647 33.8746L36.719 28.7401C37.688 27.7748 37.688 26.2139 36.719 25.2486C35.75 24.2833 34.1831 24.2833 33.2141 25.2486L28.0598 30.3832L22.9055 25.2486C21.9365 24.2833 20.3696 24.2833 19.4006 25.2486C18.4316 26.2139 18.4316 27.7748 19.4006 28.7401L24.5549 33.8746L19.4006 39.0092C18.4316 39.9744 18.4316 41.5353 19.4006 42.5006C19.8748 42.973 20.5139 43.2195 21.153 43.2195C21.7922 43.2195 22.4107 42.973 22.9055 42.5006L28.0598 37.3661L33.2141 42.5006Z" fill="#00A650"/>
<path d="M74.6341 64.7843C73.6651 63.819 72.0982 63.819 71.1291 64.7843L65.9748 69.9188L60.8205 64.7843C59.8515 63.819 58.2846 63.819 57.3156 64.7843C56.3466 65.7496 56.3466 67.3105 57.3156 68.2757L62.4699 73.4103L57.3156 78.5448C56.3466 79.5101 56.3466 81.071 57.3156 82.0363C57.7898 82.5086 58.429 82.7551 59.0681 82.7551C59.7072 82.7551 60.3257 82.5086 60.8205 82.0363L65.9748 76.9017L71.1291 82.0363C71.6033 82.5086 72.2425 82.7551 72.8816 82.7551C73.5207 82.7551 74.1393 82.5086 74.6341 82.0363C75.6031 81.071 75.6031 79.5101 74.6341 78.5448L69.4798 73.4103L74.6341 68.2757C75.6031 67.2899 75.6031 65.7496 74.6341 64.7843Z" fill="#00A650"/>
<path d="M45.3167 77.4974C44.3477 76.5321 42.7808 76.5321 41.8118 77.4974L36.6575 82.6319L31.5032 77.4974C30.5342 76.5321 28.9672 76.5321 27.9982 77.4974C27.0292 78.4627 27.0292 80.0236 27.9982 80.9889L33.1525 86.1234L27.9982 91.2579C27.0292 92.2232 27.0292 93.7841 27.9982 94.7494C28.4724 95.2218 29.1116 95.4682 29.7507 95.4682C30.3898 95.4682 31.0084 95.2218 31.5032 94.7494L36.6575 89.6149L41.8118 94.7494C42.286 95.2218 42.9251 95.4682 43.5642 95.4682C44.2034 95.4682 44.8219 95.2218 45.3167 94.7494C46.2857 93.7841 46.2857 92.2232 45.3167 91.2579L40.1624 86.1234L45.3167 80.9889C46.2651 80.0236 46.2651 78.4627 45.3167 77.4974Z" fill="#00A650"/>
<path d="M29.2968 58.9721C30.6576 58.9721 31.7709 57.8631 31.7709 56.5075C31.7709 55.152 30.6576 54.043 29.2968 54.043C27.9361 54.043 26.8228 55.152 26.8228 56.5075C26.8228 57.8631 27.9155 58.9721 29.2968 58.9721Z" fill="#00A650"/>
<path d="M10.9685 66.2425C11.3809 66.5095 11.8551 66.6533 12.3293 66.6533C13.1333 66.6533 13.9168 66.263 14.391 65.5442C15.1332 64.4146 14.8239 62.8743 13.69 62.1349C12.556 61.3955 11.0098 61.7036 10.2675 62.8332C9.5047 63.9628 9.81396 65.5031 10.9685 66.2425Z" fill="#00A650"/>
<path d="M18.6999 55.7066C17.4422 56.2611 16.8856 57.7193 17.4422 58.9516C17.8546 59.8758 18.7617 60.4098 19.7101 60.4098C20.04 60.4098 20.3905 60.3482 20.7204 60.2044C21.978 59.6499 22.5347 58.1917 21.978 56.9594C21.4005 55.7066 19.9369 55.152 18.6999 55.7066Z" fill="#00A650"/>
<path d="M39.0903 58.9721C40.4567 58.9721 41.5643 57.8687 41.5643 56.5075C41.5643 55.1464 40.4567 54.043 39.0903 54.043C37.7239 54.043 36.6162 55.1464 36.6162 56.5075C36.6162 57.8687 37.7239 58.9721 39.0903 58.9721Z" fill="#00A650"/>
<path d="M9.56635 75.8749C10.2261 75.8749 10.8652 75.6079 11.3188 75.1561C11.7724 74.7043 12.0404 74.0676 12.0404 73.4104C12.0404 72.7532 11.7724 72.1165 11.3188 71.6646C10.8652 71.2128 10.2261 70.9458 9.56635 70.9458C8.9066 70.9458 8.26747 71.2128 7.81389 71.6646C7.36031 72.1165 7.09229 72.7532 7.09229 73.4104C7.09229 74.0676 7.36031 74.7043 7.81389 75.1561C8.26747 75.6079 8.9066 75.8749 9.56635 75.8749Z" fill="#00A650"/>
<path d="M77.2732 35.0451L67.7069 25.5155C66.7378 24.5502 65.1709 24.5502 64.2019 25.5155L54.6355 35.0451C53.6665 36.0104 53.6665 37.5713 54.6355 38.5366C55.6046 39.5019 57.1715 39.5019 58.1405 38.5366L63.4803 33.2173V39.5841C63.4803 47.5529 56.9241 54.0224 48.8627 54.0224C47.502 54.0224 46.3887 55.1314 46.3887 56.4869C46.3887 57.8424 47.502 58.9515 48.8627 58.9515C59.6455 58.9515 68.4285 50.2639 68.4285 39.5841V33.1967L73.7683 38.5161C74.2425 38.9885 74.8816 39.2349 75.5208 39.2349C76.1599 39.2349 76.7784 38.9885 77.2732 38.5161C78.2422 37.5713 78.2422 36.0104 77.2732 35.0451Z" fill="#00A650"/>
</svg>
