<svg id="Слой_1" data-name="Слой 1" xmlns="http://www.w3.org/2000/svg" viewBox="0 0 100 100"><defs><style>.cls-1{fill:#06a650;}.cls-2{fill:none;}</style></defs><title>Development</title><path class="cls-1" d="M76.18,19.14a9.57,9.57,0,1,0-9.57-9.57A9.57,9.57,0,0,0,76.18,19.14ZM76.18,5a4.64,4.64,0,1,1-4.62,4.62A4.64,4.64,0,0,1,76.18,5Z"/><path class="cls-1" d="M19.77,80.86a9.57,9.57,0,1,0,9.56,9.57A9.58,9.58,0,0,0,19.77,80.86Zm0,14.21a4.64,4.64,0,1,1,4.62-4.64A4.63,4.63,0,0,1,19.77,95.07Z"/><path class="cls-1" d="M43.42,42.41a2.48,2.48,0,0,0,1.75.72,2.52,2.52,0,0,0,1.75-.72,2.46,2.46,0,0,0,0-3.49l-5.15-5.13,5.15-5.14a2.47,2.47,0,0,0-3.5-3.49l-5.16,5.13-5.15-5.13a2.47,2.47,0,0,0-3.51,3.49l5.16,5.14L29.6,38.92a2.46,2.46,0,0,0,0,3.49,2.52,2.52,0,0,0,1.76.72,2.56,2.56,0,0,0,1.75-.72l5.15-5.13Z"/><path class="cls-1" d="M84.84,64.69a2.5,2.5,0,0,0-3.51,0l-5.15,5.14L71,64.69a2.47,2.47,0,0,0-3.5,3.5l5.15,5.13-5.15,5.14a2.46,2.46,0,0,0,0,3.49,2.48,2.48,0,0,0,1.75.72A2.52,2.52,0,0,0,71,82l5.16-5.14L81.33,82a2.5,2.5,0,0,0,1.75.72A2.56,2.56,0,0,0,84.84,82a2.46,2.46,0,0,0,0-3.49l-5.16-5.14,5.16-5.13A2.47,2.47,0,0,0,84.84,64.69Z"/><path class="cls-1" d="M55.52,77.41a2.48,2.48,0,0,0-3.51,0l-5.15,5.13-5.15-5.13A2.47,2.47,0,1,0,38.2,80.9L43.35,86,38.2,91.17a2.46,2.46,0,0,0,0,3.49,2.48,2.48,0,0,0,1.75.72,2.56,2.56,0,0,0,1.76-.72l5.15-5.13L52,94.66a2.5,2.5,0,0,0,3.51,0,2.46,2.46,0,0,0,0-3.49L50.36,86l5.16-5.13A2.49,2.49,0,0,0,55.52,77.41Z"/><path class="cls-1" d="M39.5,58.88A2.47,2.47,0,1,0,37,56.42,2.47,2.47,0,0,0,39.5,58.88Z"/><path class="cls-1" d="M21.17,66.15a2.49,2.49,0,0,0,1.36.41,2.46,2.46,0,0,0,1.36-4.51,2.48,2.48,0,0,0-3.42.69A2.44,2.44,0,0,0,21.17,66.15Z"/><path class="cls-1" d="M28.9,55.62a2.45,2.45,0,0,0-1.26,3.24,2.47,2.47,0,0,0,2.27,1.46,2.6,2.6,0,0,0,1-.2,2.45,2.45,0,0,0,1.26-3.25A2.49,2.49,0,0,0,28.9,55.62Z"/><path class="cls-1" d="M49.29,58.88a2.47,2.47,0,1,0-2.47-2.46A2.47,2.47,0,0,0,49.29,58.88Z"/><path class="cls-1" d="M19.77,75.79a2.47,2.47,0,0,0,1.75-4.21,2.48,2.48,0,0,0-4.23,1.74,2.48,2.48,0,0,0,2.48,2.47Z"/><path class="cls-1" d="M87.48,35l-9.57-9.53a2.48,2.48,0,0,0-3.51,0L64.84,35a2.46,2.46,0,0,0,0,3.49,2.49,2.49,0,0,0,3.5,0l5.34-5.32v6.36A14.54,14.54,0,0,1,59.06,53.93a2.47,2.47,0,1,0,0,4.93A19.49,19.49,0,0,0,78.63,39.49V33.11L84,38.43a2.48,2.48,0,0,0,1.75.72,2.56,2.56,0,0,0,1.76-.72A2.45,2.45,0,0,0,87.48,35Z"/><rect class="cls-2" width="100" height="100"/></svg>