<svg id="Слой_1" data-name="Слой 1" xmlns="http://www.w3.org/2000/svg" viewBox="0 0 100 100"><defs><style>.cls-1{fill:#00a650;}</style></defs><title>Development</title><path class="cls-1" d="M84.58,19.14c6.77,0,12.27-4.29,12.27-9.57S91.35,0,84.58,0,72.32,4.31,72.32,9.57,77.82,19.14,84.58,19.14ZM84.58,5C87.83,5,90.5,7,90.5,9.59s-2.64,4.64-5.92,4.64-5.92-2.09-5.92-4.66S81.31,5,84.58,5Z"/><path class="cls-1" d="M12.26,80.86C5.5,80.86,0,85.15,0,90.43S5.5,100,12.26,100s12.27-4.29,12.27-9.57S19,80.86,12.26,80.86Zm0,14.21C9,95.07,6.34,93,6.34,90.43S9,85.79,12.26,85.79s5.93,2.07,5.93,4.64S15.52,95.07,12.26,95.07Z"/><path class="cls-1" d="M42.58,42.41a3.73,3.73,0,0,0,2.25.72,3.8,3.8,0,0,0,2.25-.72,2.1,2.1,0,0,0,0-3.49l-6.61-5.13,6.61-5.14a2.1,2.1,0,0,0,0-3.49,3.84,3.84,0,0,0-4.5,0L36,30.29l-6.6-5.13a3.84,3.84,0,0,0-4.5,0,2.1,2.1,0,0,0,0,3.49l6.61,5.14-6.61,5.13a2.1,2.1,0,0,0,0,3.49,3.73,3.73,0,0,0,2.25.72,3.8,3.8,0,0,0,2.25-.72L36,37.28Z"/><path class="cls-1" d="M95.68,64.69a3.86,3.86,0,0,0-4.49,0l-6.61,5.14L78,64.69a3.88,3.88,0,0,0-4.5,0,2.11,2.11,0,0,0,0,3.5l6.61,5.13-6.61,5.14a2.1,2.1,0,0,0,0,3.49,3.73,3.73,0,0,0,2.25.72A3.8,3.8,0,0,0,78,82l6.6-5.14L91.19,82a3.86,3.86,0,0,0,4.49,0,2.09,2.09,0,0,0,0-3.49l-6.6-5.14,6.6-5.13A2.1,2.1,0,0,0,95.68,64.69Z"/><path class="cls-1" d="M58.1,77.41a3.84,3.84,0,0,0-4.5,0L47,82.54l-6.61-5.13a3.83,3.83,0,0,0-4.49,0,2.09,2.09,0,0,0,0,3.49L42.5,86l-6.6,5.14a2.09,2.09,0,0,0,0,3.49,3.68,3.68,0,0,0,2.24.72,3.8,3.8,0,0,0,2.25-.72L47,89.53l6.6,5.13a3.73,3.73,0,0,0,2.25.72,3.8,3.8,0,0,0,2.25-.72,2.1,2.1,0,0,0,0-3.49L51.49,86,58.1,80.9A2.13,2.13,0,0,0,58.1,77.41Z"/><path class="cls-1" d="M37.56,58.88c1.74,0,3.17-1.11,3.17-2.46S39.3,54,37.56,54s-3.17,1.11-3.17,2.47S35.79,58.88,37.56,58.88Z"/><path class="cls-1" d="M14.06,66.15a3.88,3.88,0,0,0,1.75.41,3.46,3.46,0,0,0,2.64-1.11,2.15,2.15,0,0,0-.9-3.4,3.78,3.78,0,0,0-4.39.69A2.14,2.14,0,0,0,14.06,66.15Z"/><path class="cls-1" d="M24,55.62c-1.61.55-2.32,2-1.61,3.24a3.31,3.31,0,0,0,2.91,1.46,4.13,4.13,0,0,0,1.29-.2c1.62-.56,2.33-2,1.62-3.25A3.62,3.62,0,0,0,24,55.62Z"/><path class="cls-1" d="M50.12,58.88c1.75,0,3.17-1.1,3.17-2.46S51.87,54,50.12,54s-3.18,1.11-3.18,2.47S48.36,58.88,50.12,58.88Z"/><path class="cls-1" d="M12.26,75.79a3.73,3.73,0,0,0,2.25-.72,2.27,2.27,0,0,0,.93-1.75,2.24,2.24,0,0,0-.93-1.74,3.67,3.67,0,0,0-2.25-.72,3.66,3.66,0,0,0-2.24.72,2.24,2.24,0,0,0-.93,1.74A2.27,2.27,0,0,0,10,75.07,3.72,3.72,0,0,0,12.26,75.79Z"/><path class="cls-1" d="M99.07,35,86.8,25.43a3.83,3.83,0,0,0-4.49,0L70.05,35a2.09,2.09,0,0,0,0,3.49,3.86,3.86,0,0,0,4.49,0l6.85-5.32v6.36c0,8-8.41,14.44-18.75,14.44-1.74,0-3.17,1.11-3.17,2.47s1.43,2.46,3.17,2.46c13.83,0,25.09-8.69,25.09-19.37V33.11l6.84,5.32a3.73,3.73,0,0,0,2.25.72,3.8,3.8,0,0,0,2.25-.72A2.08,2.08,0,0,0,99.07,35Z"/></svg>