<svg width="205" height="216" viewBox="0 0 205 216" fill="none" xmlns="http://www.w3.org/2000/svg">
<path d="M85.5249 187.05C104.501 187.046 122.929 180.694 137.877 169.004L184.873 216L199.989 200.883L152.993 153.888C164.689 138.938 171.045 120.505 171.05 101.525C171.05 54.3686 132.681 16 85.5249 16C38.3686 16 0 54.3686 0 101.525C0 148.681 38.3686 187.05 85.5249 187.05ZM85.5249 37.3812C120.9 37.3812 149.669 66.1497 149.669 101.525C149.669 136.9 120.9 165.669 85.5249 165.669C50.1497 165.669 21.3812 136.9 21.3812 101.525C21.3812 66.1497 50.1497 37.3812 85.5249 37.3812Z" fill="#00A650"/>
<path d="M90.5249 171.05C109.501 171.046 127.929 164.694 142.877 153.004L189.873 200L204.989 184.883L157.993 137.888C169.689 122.938 176.045 104.505 176.05 85.5249C176.05 38.3686 137.681 0 90.5249 0C43.3686 0 5 38.3686 5 85.5249C5 132.681 43.3686 171.05 90.5249 171.05ZM90.5249 21.3812C125.9 21.3812 154.669 50.1497 154.669 85.5249C154.669 120.9 125.9 149.669 90.5249 149.669C55.1497 149.669 26.3812 120.9 26.3812 85.5249C26.3812 50.1497 55.1497 21.3812 90.5249 21.3812Z" fill="#F0F0F0"/>
</svg>
