<svg width="287" height="287" viewBox="0 0 287 287" fill="none" xmlns="http://www.w3.org/2000/svg">
<path d="M143.644 50.0503C92.1341 50.0503 50.231 91.9534 50.231 143.463C50.231 194.969 92.1341 236.876 143.644 236.876C195.15 236.876 237.056 194.969 237.056 143.463C237.056 91.9534 195.15 50.0503 143.644 50.0503ZM143.644 218.378C102.335 218.378 68.7284 184.771 68.7284 143.463C68.7284 102.155 102.335 68.5477 143.644 68.5477C184.952 68.5477 218.559 102.155 218.559 143.463C218.559 184.774 184.952 218.378 143.644 218.378Z" fill="#F0F0F0"/>
<path d="M143.644 0.106934C138.536 0.106934 134.395 4.24746 134.395 9.35565V101.227C134.395 106.335 138.536 110.475 143.644 110.475C148.752 110.475 152.892 106.335 152.892 101.227V9.35565C152.892 4.24746 148.752 0.106934 143.644 0.106934Z" fill="#F0F0F0"/>
<path d="M143.644 176.451C138.536 176.451 134.395 180.591 134.395 185.699V277.571C134.395 282.679 138.536 286.819 143.644 286.819C148.752 286.819 152.892 282.679 152.892 277.571V185.699C152.892 180.591 148.752 176.451 143.644 176.451Z" fill="#F0F0F0"/>
<path d="M277.751 134.215H185.88C180.772 134.215 176.631 138.355 176.631 143.463C176.631 148.572 180.772 152.712 185.88 152.712H277.751C282.859 152.712 287 148.572 287 143.463C287 138.355 282.859 134.215 277.751 134.215Z" fill="#F0F0F0"/>
<path d="M101.407 134.215H9.53631C4.42813 134.215 0.287598 138.355 0.287598 143.463C0.287598 148.572 4.42813 152.712 9.53631 152.712H101.407C106.516 152.712 110.656 148.572 110.656 143.463C110.656 138.355 106.516 134.215 101.407 134.215Z" fill="#F0F0F0"/>
</svg>
