<svg id="Слой_1" data-name="Слой 1" xmlns="http://www.w3.org/2000/svg" viewBox="0 0 299 299.82"><defs><style>.cls-1{fill:#06a650;}.cls-2{fill:#f0f0f0;}</style></defs><title>target</title><path class="cls-1" d="M143.36,49.94a93.42,93.42,0,1,0,93.41,93.42A93.53,93.53,0,0,0,143.36,49.94Zm0,168.33a74.92,74.92,0,1,1,74.91-74.91A75,75,0,0,1,143.36,218.27Z"/><path class="cls-1" d="M143.36,0a9.25,9.25,0,0,0-9.25,9.25v91.87a9.25,9.25,0,1,0,18.49,0V9.25A9.25,9.25,0,0,0,143.36,0Z"/><path class="cls-1" d="M143.36,176.34a9.25,9.25,0,0,0-9.25,9.25v91.87a9.25,9.25,0,1,0,18.49,0V185.59A9.25,9.25,0,0,0,143.36,176.34Z"/><path class="cls-1" d="M277.46,134.11H185.59a9.25,9.25,0,1,0,0,18.49h91.87a9.25,9.25,0,1,0,0-18.49Z"/><path class="cls-1" d="M101.12,134.11H9.25a9.25,9.25,0,1,0,0,18.49h91.87a9.25,9.25,0,1,0,0-18.49Z"/><path class="cls-2" d="M155.64,63.05a93.42,93.42,0,1,0,93.42,93.41A93.51,93.51,0,0,0,155.64,63.05Zm0,168.33a74.92,74.92,0,1,1,74.92-74.92A75,75,0,0,1,155.64,231.38Z"/><path class="cls-2" d="M155.64,13.11a9.25,9.25,0,0,0-9.24,9.25v91.87a9.25,9.25,0,0,0,18.49,0V22.36A9.25,9.25,0,0,0,155.64,13.11Z"/><path class="cls-2" d="M155.64,189.45a9.25,9.25,0,0,0-9.24,9.25v91.87a9.25,9.25,0,1,0,18.49,0V198.7A9.25,9.25,0,0,0,155.64,189.45Z"/><path class="cls-2" d="M289.75,147.21H197.88a9.25,9.25,0,0,0,0,18.5h91.87a9.25,9.25,0,0,0,0-18.5Z"/><path class="cls-2" d="M113.41,147.21H21.54a9.25,9.25,0,1,0,0,18.5h91.87a9.25,9.25,0,0,0,0-18.5Z"/></svg>