<svg width="555" height="454" viewBox="0 0 555 454" fill="none" xmlns="http://www.w3.org/2000/svg">
<path d="M215.646 320.883C214.232 316.643 216.506 312.064 220.747 310.62C225.018 309.207 229.597 311.511 231.01 315.752C234.328 325.584 240.659 334.034 248.924 339.995C256.943 345.741 266.808 349.151 277.501 349.151C288.195 349.151 298.058 345.741 306.078 339.995C314.344 334.034 320.704 325.583 323.992 315.752C325.406 311.511 330.015 309.208 334.255 310.62C338.496 312.064 340.8 316.643 339.356 320.883C334.962 334.004 326.543 345.219 315.542 353.147C304.819 360.859 291.668 365.407 277.502 365.407C263.337 365.407 250.216 360.859 239.462 353.147C228.459 345.219 220.04 334.004 215.646 320.883ZM468.41 100.386L438.113 90.1225L418.724 99.5856V108.22C418.724 115.041 421.52 121.248 426.037 125.765C430.555 130.282 436.761 133.079 443.583 133.079C450.404 133.079 456.611 130.282 461.128 125.765C465.615 121.248 468.41 115.041 468.41 108.22V100.386ZM418.724 81.5807L433.504 74.3288C435.47 73.1917 437.867 72.8849 440.171 73.6838L468.41 83.2402V72.8849C468.41 70.0579 467.273 67.4769 465.399 65.6027C463.494 63.7285 460.913 62.5611 458.086 62.5611H429.049C426.222 62.5611 423.641 63.7285 421.766 65.6027C419.892 67.4769 418.725 70.0579 418.725 72.8849V81.5807H418.724ZM86.5908 75.4041H136.277V62.56H96.9147C94.0877 62.56 91.5067 63.7274 89.6325 65.6016C87.7583 67.4759 86.5898 70.0568 86.5898 72.8839V75.4041H86.5908ZM136.277 91.6584H86.5908V108.221C86.5908 115.042 89.3875 121.249 93.9045 125.766C98.3911 130.283 104.628 133.08 111.45 133.08C118.271 133.08 124.478 130.283 128.995 125.766C133.482 121.249 136.279 115.042 136.279 108.221V91.6584H136.277ZM302.359 54.1418C293.387 55.0642 280.358 54.2339 269.112 44.9854C265.118 47.1056 259.433 49.1945 252.674 49.1023V61.9161C252.674 68.768 255.47 74.9749 259.956 79.4615C264.473 83.9784 270.68 86.7751 277.501 86.7751C284.323 86.7751 290.53 83.9784 295.046 79.4615C299.563 74.9749 302.36 68.769 302.36 61.9161V54.1418H302.359ZM252.672 32.9087C259.74 33.1547 264.595 28.6378 264.626 28.6074L264.779 28.4839C268.159 25.5647 273.261 25.9332 276.21 29.3142C284.475 38.8088 295.752 38.9009 302.359 37.8874V26.5793C302.359 23.7523 301.192 21.1713 299.317 19.2971C297.442 17.4229 294.861 16.2554 292.034 16.2554H262.997C260.17 16.2554 257.589 17.4229 255.714 19.2971C253.81 21.1713 252.672 23.7523 252.672 26.5793V32.9087ZM152.532 108.221C152.532 115.719 150.504 122.786 146.971 128.869C155.175 130.222 162.519 134.185 168.173 139.839C175.272 146.937 179.696 156.74 179.696 167.556V180.768L181.909 178.556C182.247 178.188 182.616 177.911 182.984 177.634C185.627 175.545 188.516 174.469 191.618 174.438C194.998 174.408 198.133 175.667 201.021 178.248C201.143 178.34 201.235 178.464 201.358 178.556L209.255 186.423V121.25C209.255 110.465 213.649 100.663 220.777 93.5348C226.431 87.8808 233.775 83.9481 241.979 82.5649C238.445 76.4805 236.387 69.4444 236.387 61.9161V26.5793C236.387 19.2657 239.398 12.6295 244.191 7.80469C249.015 2.98096 255.652 0 262.997 0H292.034C299.348 0 305.985 2.98096 310.809 7.80469C315.632 12.6295 318.613 19.2657 318.613 26.5793V61.9161C318.613 69.4444 316.585 76.4805 313.021 82.5649C321.225 83.947 328.6 87.8808 334.253 93.5348C341.351 100.663 345.776 110.466 345.776 121.25V186.423L353.642 178.556C353.981 178.188 354.349 177.88 354.749 177.634C357.422 175.452 360.31 174.408 363.414 174.438C366.763 174.468 369.836 175.728 372.663 178.156C372.785 178.279 372.939 178.432 373.093 178.556L375.305 180.768V167.556C375.305 156.74 379.729 146.937 386.828 139.839C392.481 134.186 399.856 130.222 408.061 128.869C404.496 122.786 402.468 115.719 402.468 108.221V72.8849C402.468 65.5713 405.449 58.9037 410.273 54.1103C415.098 49.2866 421.734 46.3056 429.048 46.3056H458.085C465.428 46.3056 472.066 49.2866 476.89 54.1103C481.684 58.9037 484.695 65.5713 484.695 72.8849V108.221C484.695 115.719 482.636 122.786 479.103 128.869C487.307 130.222 494.65 134.185 500.304 139.839C507.434 146.937 511.827 156.74 511.827 167.556V211.034C518.158 215.951 525.686 224.677 531.616 230.576C533.829 232.789 535.058 235.892 535.058 239.026C535.028 242.161 533.675 245.663 531.432 247.906L525.071 254.267C526.945 257.463 528.543 260.935 529.957 264.468C531.37 268.032 532.568 271.597 533.583 274.946H542.893C546.058 274.946 549.285 276.114 551.558 278.388C554.018 280.815 555 284.103 555 287.422V313.201C555 316.428 553.833 319.624 551.558 321.898C549.162 324.294 545.844 325.339 542.556 325.339H533.584C532.569 328.689 531.371 332.253 529.958 335.817C528.544 339.351 526.946 342.823 525.072 346.019L531.617 352.564C533.738 354.684 535.029 358.34 535.059 361.259C535.059 364.271 534.046 366.974 531.924 369.341C531.832 369.463 531.709 369.587 531.617 369.679V369.709L513.12 388.176C507.835 393.461 501.013 393.185 495.82 388.022L489.398 381.6C485.834 383.567 482.577 385.104 479.197 386.456C475.909 387.777 472.591 388.883 468.78 390.082V399.454C468.78 402.68 467.612 405.937 465.308 408.211C463.065 410.454 460.176 411.561 456.643 411.529V411.591H430.525C427.268 411.591 424.133 410.516 421.798 408.211C419.401 405.814 418.387 402.465 418.387 399.208V390.082C414.546 388.884 411.258 387.777 407.971 386.456C406.25 385.749 404.56 385.012 402.839 384.213C402.931 384.858 402.993 385.534 402.993 386.211C403.023 389.805 401.548 393.278 399.029 395.797L373.094 421.762C370.636 424.221 366.888 425.818 363.416 425.849C359.697 425.879 356.041 424.128 353.459 421.577L342.613 410.699C336.774 414.048 331.705 416.475 326.419 418.596C321.227 420.686 316.003 422.376 309.642 424.342V439.982C309.642 443.639 308.383 447.356 305.77 449.968C303.251 452.457 299.962 453.717 295.906 453.686V453.717H259.125C255.438 453.717 251.874 452.58 249.231 449.968C246.588 447.326 245.359 443.515 245.359 439.859V424.342L245.236 424.312C238.937 422.376 233.744 420.655 228.613 418.597C223.328 416.477 218.228 414.049 212.389 410.7L201.358 421.762C198.869 424.251 195.152 425.879 191.617 425.849C188.237 425.818 185.164 424.558 182.368 422.131C182.215 422.008 182.062 421.854 181.938 421.732L181.908 421.762L155.913 395.736C153.424 393.247 152.01 389.744 152.01 386.211C152.041 385.534 152.072 384.858 152.195 384.213C150.474 385.012 148.784 385.749 147.063 386.456C143.775 387.777 140.456 388.883 136.616 390.082V399.454C136.616 402.649 135.509 405.907 133.205 408.211C130.963 410.454 128.074 411.561 124.509 411.529V411.591H98.3597C95.1326 411.591 92.0303 410.516 89.6943 408.211C87.4819 405.999 86.3448 403.141 86.2841 399.577V399.455H86.2526V390.083C82.411 388.885 79.0929 387.778 75.8355 386.457C72.4557 385.105 69.1983 383.568 65.6038 381.602L59.0284 388.177C53.8664 393.309 47.7517 393.247 42.3122 388.546C42.1898 388.423 42.0358 388.299 41.9123 388.145L41.8819 388.176L23.4151 369.709C21.2027 367.497 19.9431 364.393 19.9735 361.259C19.9735 358.678 20.8342 356.158 22.4623 353.762C22.7387 353.331 23.0769 352.932 23.4141 352.564L29.9288 346.019C28.085 342.823 26.4568 339.351 25.0433 335.817C23.6298 332.253 22.432 328.689 21.4488 325.339H12.1385C8.94287 325.339 5.71585 324.172 3.47309 321.898C1.26067 319.716 0.123574 316.858 0.0314355 313.356V313.202H0V287.085C0 283.858 1.16854 280.663 3.47309 278.389C5.7462 276.115 9.03393 274.947 12.1688 274.947H21.4488C22.432 271.598 23.6309 268.034 25.0433 264.469C26.4568 260.936 28.085 257.464 29.9288 254.268L23.4141 247.723C21.3252 245.664 19.9724 241.885 19.9724 239.027C19.9421 235.893 21.2017 232.79 23.4444 230.546L41.8808 212.11C42.3112 211.68 42.7112 211.403 43.1718 211.034V167.556C43.1718 156.74 47.5967 146.937 54.6946 139.839C60.3487 134.186 67.6916 130.222 75.9266 128.869C72.3625 122.786 70.3343 115.719 70.3343 108.221V83.5167V72.8849C70.3343 65.5713 73.3142 58.9037 78.139 54.1103C82.9627 49.2866 89.6011 46.3056 96.9136 46.3056H144.418C148.905 46.3056 152.53 49.9316 152.53 54.4182V83.5167V108.221H152.532ZM130.593 144.571C124.847 147.613 118.333 149.334 111.45 149.334C104.536 149.334 98.0215 147.614 92.3067 144.571H82.4121C76.113 144.571 70.3668 147.152 66.1881 151.331C62.0397 155.509 59.4284 161.225 59.4284 167.555V212.539L65.6049 218.685C69.1994 216.718 72.4568 215.182 75.8366 213.83C79.0929 212.509 82.4121 211.403 86.2537 210.204V200.833C86.2537 200.433 86.2841 200.064 86.3459 199.666C86.5919 196.592 87.7279 194.042 89.6954 192.076C91.9696 189.833 94.8573 188.727 98.3607 188.757V188.727H124.509C127.736 188.727 130.901 189.771 133.205 192.076C135.572 194.442 136.616 197.822 136.616 201.048V210.204C140.456 211.402 143.774 212.509 147.063 213.83C148.783 214.537 150.473 215.275 152.195 216.073C152.071 215.428 152.041 214.751 152.01 214.076C152.01 210.666 153.178 207.623 155.576 204.92C155.698 204.797 155.79 204.674 155.914 204.551L163.442 197.023V167.556C163.442 161.226 160.861 155.511 156.682 151.332C152.504 147.153 146.757 144.572 140.458 144.572H130.593V144.571ZM462.726 144.571C457.01 147.613 450.465 149.334 443.583 149.334C436.669 149.334 430.155 147.614 424.439 144.571H414.545C408.246 144.571 402.5 147.152 398.321 151.331C394.172 155.509 391.592 161.225 391.592 167.555V197.022L399.12 204.55C401.609 207.039 403.022 210.542 402.992 214.076C402.992 214.752 402.93 215.428 402.838 216.073C404.558 215.274 406.248 214.537 407.969 213.83C411.257 212.509 414.545 211.403 418.385 210.204C418.385 207.193 418.079 202.492 418.479 199.664C418.725 196.591 419.83 194.041 421.797 192.074C424.04 189.832 426.959 188.726 430.524 188.756V188.726H456.641C459.868 188.726 463.002 189.77 465.307 192.074C467.519 194.287 468.656 197.144 468.748 200.708V200.832H468.779V210.203C472.59 211.401 475.908 212.508 479.196 213.829C482.576 215.181 485.833 216.717 489.397 218.684L495.574 212.538V167.554C495.574 161.224 492.993 155.508 488.814 151.33C484.666 147.151 478.921 144.57 472.59 144.57H462.726V144.571ZM296.643 98.2957C290.928 101.307 284.414 103.027 277.5 103.027C270.556 103.027 264.011 101.307 258.265 98.2339L248.493 98.2957C242.163 98.2957 236.417 100.877 232.269 105.025C228.09 109.204 225.509 114.95 225.509 121.249V182.98C226.523 182.549 227.567 182.119 228.612 181.689C233.774 179.63 239.028 177.91 245.359 175.943V160.303C245.359 156.647 246.618 152.928 249.231 150.317C251.75 147.828 255.069 146.568 259.125 146.599V146.569H295.906C299.562 146.569 303.128 147.706 305.77 150.318C308.259 152.807 309.55 156.095 309.611 160.181V160.304H309.641V175.944L309.764 175.974C316.063 177.91 321.286 179.63 326.418 181.689C327.463 182.119 328.477 182.549 329.491 182.98V121.249C329.491 114.95 326.91 109.204 322.762 105.025C318.583 100.877 312.837 98.2957 306.538 98.2957H296.643ZM427.389 328.289C428.095 328.689 428.803 329.056 429.509 329.426C433.75 331.454 438.513 332.59 443.582 332.59C452.523 332.59 460.636 328.964 466.505 323.096C472.405 317.227 476.031 309.114 476.031 300.142C476.031 291.17 472.405 283.058 466.505 277.189C460.636 271.32 452.524 267.694 443.582 267.694C438.512 267.694 433.749 268.831 429.509 270.859C428.803 271.228 428.064 271.597 427.359 271.997C429.755 274.455 430.985 277.651 431.045 281.583V281.737H431.077V318.548C431.077 322.082 429.878 325.707 427.389 328.289ZM407.017 268.002C411.318 263.117 416.572 259.122 422.472 256.264C428.894 253.16 436.053 251.44 443.582 251.44C457.01 251.44 469.209 256.878 478.027 265.698C486.815 274.516 492.285 286.683 492.285 300.142C492.285 313.601 486.816 325.769 478.027 334.587C469.209 343.405 457.01 348.845 443.582 348.845C436.053 348.845 428.894 347.124 422.472 344.02C416.572 341.162 411.318 337.168 407.017 332.282H401.731C400.225 337.659 398.351 343.405 396.078 349.151C393.804 354.775 391.161 360.306 388.089 365.253L389.749 366.912C391.531 365.683 393.559 364.946 395.679 364.73C398.476 364.424 401.394 364.976 403.914 366.42C407.694 368.602 410.858 370.138 413.993 371.398C417.219 372.688 420.599 373.795 424.655 375.054C427.39 375.761 430.125 377.605 431.877 379.786C433.689 382.09 434.642 384.856 434.642 387.775V395.303H452.494V387.775H452.524C452.494 384.641 453.569 381.936 455.29 379.786C457.072 377.543 459.591 375.945 462.111 375.146V375.177L462.142 375.146C466.382 373.856 469.823 372.719 473.142 371.398C476.306 370.138 479.441 368.601 483.251 366.42C485.77 364.976 488.689 364.424 491.486 364.73C494.067 365.007 496.587 366.052 498.614 367.865C498.83 368.05 499.045 368.234 499.229 368.418L504.545 373.764L517.174 361.136L511.857 355.79H511.888C509.86 353.792 508.416 350.996 508.078 347.955C507.77 345.189 508.324 342.239 510.106 339.505C511.918 336.616 513.517 333.298 514.9 329.826C516.314 326.323 517.511 322.544 518.526 318.918C519.233 316.429 520.985 313.787 523.258 311.974C525.47 310.222 528.359 309.086 531.216 309.086H538.745V291.203H531.216V291.172C528.175 291.203 525.408 290.035 523.258 288.315C520.984 286.502 519.233 283.86 518.526 281.371C517.511 277.745 516.314 273.966 514.9 270.463C513.517 266.991 511.918 263.672 510.106 260.784C508.324 258.049 507.771 255.099 508.078 252.334C508.416 249.446 509.798 246.558 511.856 244.499L517.173 239.152L504.544 226.523L499.228 231.871V231.84C497.077 234.021 494.342 235.252 491.485 235.558C488.688 235.866 485.77 235.312 483.25 233.869C479.44 231.686 476.305 230.15 473.141 228.891C469.914 227.6 466.564 226.494 462.508 225.235C459.773 224.528 457.039 222.684 455.288 220.503C453.444 218.198 452.491 215.433 452.491 212.514V204.986H434.639V212.514H434.608C434.67 215.648 433.594 218.352 431.873 220.503C430.091 222.746 427.571 224.345 425.021 225.142V225.112L424.99 225.142C420.781 226.432 417.309 227.569 413.99 228.891C410.855 230.15 407.691 231.686 403.911 233.869C401.392 235.313 398.473 235.866 395.676 235.558C393.556 235.344 391.528 234.607 389.746 233.376L388.086 235.036C391.159 239.983 393.801 245.514 396.075 251.137C398.349 256.884 400.223 262.63 401.728 268.006H407.017V268.002ZM165.252 233.372C163.47 234.601 161.442 235.338 159.322 235.554C156.557 235.862 153.637 235.308 151.118 233.864C147.308 231.682 144.174 230.146 141.009 228.887C137.783 227.596 134.434 226.49 130.377 225.23C130.223 225.2 130.101 225.168 129.977 225.138C127.427 224.339 124.938 222.741 123.124 220.499C121.557 218.502 120.512 216.074 120.389 213.247C120.389 213.001 120.359 212.756 120.359 212.51V204.981H102.507V212.51H102.477C102.538 215.643 101.462 218.348 99.7417 220.499C97.9293 222.741 95.4405 224.34 92.8899 225.138V225.108L92.8595 225.138C88.6504 226.428 85.1773 227.565 81.8592 228.887C78.7254 230.146 75.5602 231.682 71.7814 233.864C69.2308 235.309 66.3117 235.862 63.5464 235.554C60.9351 235.278 58.4452 234.233 56.4181 232.42C56.2024 232.235 55.9878 232.052 55.7732 231.867L50.4573 226.52L37.8278 239.149L43.1437 244.496C45.1718 246.493 46.5853 249.289 46.9235 252.331C47.2314 255.096 46.6785 258.047 44.9268 260.781C43.083 263.669 41.4852 266.987 40.102 270.459C38.7199 273.963 37.4907 277.742 36.4761 281.368C35.7997 283.856 34.0187 286.499 31.7445 288.312C29.5321 290.094 26.6433 291.199 23.7859 291.199H16.2576V309.083H23.7859V309.113C26.8579 309.083 29.6242 310.281 31.7445 311.971C34.0187 313.784 35.8008 316.426 36.4761 318.915C37.4907 322.541 38.7188 326.319 40.102 329.823C41.4852 333.296 43.083 336.614 44.9268 339.502C46.6785 342.237 47.2314 345.186 46.9235 347.951C46.6167 350.839 45.2336 353.728 43.1437 355.786L37.8278 361.133L50.4573 373.761L55.7732 368.415L55.8035 368.445C57.9238 366.295 60.689 365.034 63.5464 364.727C66.3117 364.42 69.2308 364.973 71.7814 366.417C75.5602 368.599 78.7254 370.135 81.8592 371.395C85.0863 372.685 88.4358 373.791 92.5224 375.051C95.2259 375.758 97.9911 377.602 99.7428 379.783C101.555 382.087 102.508 384.852 102.508 387.772V395.3H120.36V387.772H120.391C120.329 384.638 121.404 381.933 123.125 379.783C124.938 377.54 127.428 375.942 129.978 375.143V375.173L130.009 375.143C134.249 373.853 137.691 372.716 141.009 371.395C144.174 370.135 147.308 368.598 151.118 366.417C153.637 364.973 156.557 364.42 159.322 364.727C161.442 364.943 163.47 365.68 165.252 366.909L166.912 365.25C163.839 360.302 161.196 354.772 158.953 349.148C156.649 343.402 154.805 337.656 153.269 332.279H147.983C143.59 337.257 138.212 341.343 132.19 344.201C125.859 347.182 118.823 348.841 111.449 348.841C97.99 348.841 85.8212 343.402 77.003 334.584C68.1837 325.764 62.7453 313.597 62.7453 300.139C62.7453 286.68 68.1837 274.513 77.003 265.694C85.8212 256.875 97.99 251.437 111.449 251.437C118.823 251.437 125.859 253.096 132.19 256.076C138.212 258.934 143.59 263.02 147.983 267.999H153.269C154.805 262.621 156.649 256.875 158.953 251.13C161.196 245.506 163.839 239.976 166.912 235.028L165.252 233.372ZM127.642 271.997C126.874 271.566 126.075 271.136 125.276 270.767C121.097 268.801 116.426 267.695 111.449 267.695C102.477 267.695 94.3641 271.321 88.4954 277.19C82.6256 283.059 78.9997 291.17 78.9997 300.143C78.9997 309.115 82.6256 317.228 88.4954 323.097C94.3641 328.965 102.476 332.591 111.449 332.591C116.426 332.591 121.096 331.485 125.276 329.519C126.075 329.151 126.842 328.72 127.611 328.29C125.276 325.863 124.047 322.666 123.955 318.703V318.549H123.924V281.738C123.924 278.203 125.154 274.578 127.642 271.997ZM177.359 206.087L177.267 206.179L169.155 214.291L179.019 224.124H178.989C181.355 226.458 182.983 229.685 183.383 233.188C183.721 236.383 183.107 239.795 181.079 242.959C178.374 247.199 176.009 252.055 174.011 257.124C171.951 262.226 170.231 267.632 168.787 272.826C167.988 275.683 165.93 278.756 163.256 280.907C160.705 282.935 157.387 284.256 154.099 284.256H140.18V316.028H154.099V316.058C157.602 316.058 160.767 317.41 163.256 319.408C165.929 321.528 167.987 324.6 168.787 327.459C170.231 332.651 171.951 338.06 174.011 343.16C176.008 348.23 178.374 353.085 181.079 357.325C183.107 360.49 183.721 363.9 183.383 367.096C183.015 370.323 181.601 373.333 179.511 375.607C179.357 375.791 179.204 375.976 179.019 376.16L169.155 385.993L191.647 408.484L201.48 398.621L201.511 398.651C203.938 396.163 207.133 394.719 210.421 394.35C213.678 393.982 217.059 394.657 220.009 396.347C225.477 399.482 230.026 401.694 234.635 403.537C239.306 405.411 244.161 407.009 250.03 408.823C250.152 408.853 250.276 408.884 250.43 408.945C253.41 409.867 256.33 411.71 258.45 414.353C260.294 416.688 261.492 419.545 261.584 422.864C261.614 423.111 261.614 423.325 261.614 423.541V437.46H293.387V423.541H293.417C293.355 419.945 294.585 416.842 296.581 414.353C298.671 411.71 301.621 409.866 304.602 408.945H304.632C310.655 407.071 315.602 405.443 320.395 403.537C324.974 401.693 329.552 399.481 335.022 396.347C337.941 394.657 341.352 393.981 344.578 394.35C347.65 394.719 350.601 395.948 352.966 398.129C353.15 398.283 353.334 398.467 353.519 398.621L363.383 408.484L385.844 385.993L383.846 383.996L376.011 376.161C373.677 373.826 372.017 370.599 371.617 367.097C371.279 363.901 371.925 360.491 373.952 357.326C376.656 353.085 378.991 348.231 381.019 343.161C383.048 338.06 384.769 332.652 386.243 327.46C387.043 324.602 389.102 321.529 391.775 319.409C394.325 317.35 397.613 316.029 400.901 316.029H414.82V284.258H400.901V284.227C397.429 284.227 394.233 282.875 391.775 280.878C389.102 278.757 387.043 275.685 386.243 272.827C384.769 267.634 383.048 262.227 381.019 257.125C378.991 252.056 376.656 247.2 373.952 242.96C371.924 239.796 371.279 236.384 371.617 233.189C371.986 229.962 373.429 226.952 375.489 224.677C375.643 224.493 375.827 224.309 376.011 224.125L385.844 214.292L377.733 206.18L377.671 206.088L363.383 191.8L353.519 201.663V201.633C351.06 204.122 347.896 205.567 344.577 205.935C340.429 206.396 337.509 205.351 334.006 203.354C329.305 200.988 325.341 198.745 320.394 196.749C315.693 194.873 310.868 193.277 305 191.463C301.804 190.634 298.607 188.483 296.579 185.933C294.705 183.598 293.507 180.739 293.415 177.421C293.415 177.175 293.385 176.96 293.385 176.746V162.826H261.612V176.746H261.582C261.643 180.34 260.414 183.444 258.448 185.934C256.328 188.576 253.408 190.419 250.427 191.372L250.397 191.342V191.372C244.344 193.216 239.397 194.844 234.634 196.75C230.517 198.408 226.399 200.344 221.667 202.987C218.195 205.169 214.6 206.397 210.42 205.937C207.348 205.599 204.397 204.34 202.032 202.158C201.847 202.004 201.663 201.819 201.479 201.666L191.646 191.802L177.359 206.087ZM339.354 279.402C340.798 283.643 338.494 288.221 334.253 289.666C330.013 291.079 325.403 288.775 323.99 284.534C320.702 274.701 314.341 266.251 306.076 260.291C298.086 254.544 288.192 251.134 277.499 251.134C266.805 251.134 256.942 254.544 248.922 260.291C240.656 266.253 234.327 274.702 231.008 284.534C229.594 288.775 225.017 291.079 220.745 289.666C216.504 288.222 214.231 283.643 215.644 279.402C220.038 266.312 228.457 255.066 239.458 247.139C250.212 239.426 263.332 234.879 277.498 234.879C291.663 234.879 304.815 239.426 315.538 247.139C326.542 255.066 334.961 266.312 339.354 279.402Z" fill="white"/>
</svg>
